<?xml version="1.0" encoding="UTF-8" standalone="no"?>
<!DOCTYPE svg PUBLIC "-//W3C//DTD SVG 1.1//EN"
 "http://www.w3.org/Graphics/SVG/1.1/DTD/svg11.dtd">
<!-- Generated by graphviz version 2.40.1 (20161225.0304)
 -->
<!-- Title: %3 Pages: 1 -->
<svg width="484pt" height="792pt"
 viewBox="0.00 0.00 484.38 792.00" xmlns="http://www.w3.org/2000/svg" xmlns:xlink="http://www.w3.org/1999/xlink">
<g id="graph0" class="graph" transform="scale(1 1) rotate(0) translate(4 788)">
<title>%3</title>
<polygon fill="#ffffff" stroke="transparent" points="-4,4 -4,-788 480.3816,-788 480.3816,4 -4,4"/>
<!-- (below main) -->
<g id="node1" class="node">
<title>(below main)</title>
<polygon fill="#ff0000" stroke="#ff0000" points="182.8816,-578 111.8816,-578 111.8816,-515 182.8816,-515 182.8816,-578"/>
<text text-anchor="middle" x="147.3816" y="-566" font-family="Arial" font-size="10.00" fill="#ffffff">libc&#45;2.26.so</text>
<text text-anchor="middle" x="147.3816" y="-555" font-family="Arial" font-size="10.00" fill="#ffffff">(below main)</text>
<text text-anchor="middle" x="147.3816" y="-544" font-family="Arial" font-size="10.00" fill="#ffffff">99.96%</text>
<text text-anchor="middle" x="147.3816" y="-533" font-family="Arial" font-size="10.00" fill="#ffffff">(0.00%)</text>
<text text-anchor="middle" x="147.3816" y="-522" font-family="Arial" font-size="10.00" fill="#ffffff">1×</text>
</g>
<!-- main -->
<g id="node2" class="node">
<title>main</title>
<polygon fill="#ff0000" stroke="#ff0000" points="179.3816,-475 115.3816,-475 115.3816,-412 179.3816,-412 179.3816,-475"/>
<text text-anchor="middle" x="147.3816" y="-463" font-family="Arial" font-size="10.00" fill="#ffffff">viz&#45;release</text>
<text text-anchor="middle" x="147.3816" y="-452" font-family="Arial" font-size="10.00" fill="#ffffff">main</text>
<text text-anchor="middle" x="147.3816" y="-441" font-family="Arial" font-size="10.00" fill="#ffffff">99.96%</text>
<text text-anchor="middle" x="147.3816" y="-430" font-family="Arial" font-size="10.00" fill="#ffffff">(1.39%)</text>
<text text-anchor="middle" x="147.3816" y="-419" font-family="Arial" font-size="10.00" fill="#ffffff">1×</text>
</g>
<!-- (below main)&#45;&gt;main -->
<g id="edge1" class="edge">
<title>(below main)&#45;&gt;main</title>
<path fill="none" stroke="#ff0000" stroke-width="4" d="M147.3816,-514.7562C147.3816,-505.5536 147.3816,-495.3591 147.3816,-485.6267"/>
<polygon fill="#ff0000" stroke="#ff0000" stroke-width="4" points="150.8817,-485.3163 147.3816,-475.3163 143.8817,-485.3164 150.8817,-485.3163"/>
<text text-anchor="middle" x="164.3816" y="-498" font-family="Arial" font-size="10.00" fill="#ff0000">99.96%</text>
<text text-anchor="middle" x="164.3816" y="-487" font-family="Arial" font-size="10.00" fill="#ff0000">1×</text>
</g>
<!-- free -->
<g id="node9" class="node">
<title>free</title>
<polygon fill="#0c9885" stroke="#0c9885" points="311.8816,-166 244.8816,-166 244.8816,-103 311.8816,-103 311.8816,-166"/>
<text text-anchor="middle" x="278.3816" y="-154" font-family="Arial" font-size="10.00" fill="#ffffff">libc&#45;2.26.so</text>
<text text-anchor="middle" x="278.3816" y="-143" font-family="Arial" font-size="10.00" fill="#ffffff">free</text>
<text text-anchor="middle" x="278.3816" y="-132" font-family="Arial" font-size="10.00" fill="#ffffff">28.34%</text>
<text text-anchor="middle" x="278.3816" y="-121" font-family="Arial" font-size="10.00" fill="#ffffff">(7.24%)</text>
<text text-anchor="middle" x="278.3816" y="-110" font-family="Arial" font-size="10.00" fill="#ffffff">1340091×</text>
</g>
<!-- main&#45;&gt;free -->
<g id="edge14" class="edge">
<title>main&#45;&gt;free</title>
<path fill="none" stroke="#0d247a" stroke-width=".5" d="M115.3502,-418.8144C61.0621,-373.9966 -38.0627,-277.2932 16.3816,-206 43.5974,-170.3618 175.0112,-148.21 240.7575,-139.1782"/>
<polygon fill="#0d247a" stroke="#0d247a" stroke-width=".5" points="241.3043,-140.3402 244.607,-138.6541 240.9737,-137.9126 241.3043,-140.3402"/>
<text text-anchor="middle" x="32.3816" y="-292" font-family="Arial" font-size="10.00" fill="#0d247a">5.31%</text>
<text text-anchor="middle" x="32.3816" y="-281" font-family="Arial" font-size="10.00" fill="#0d247a">167520×</text>
</g>
<!-- calloc -->
<g id="node11" class="node">
<title>calloc</title>
<polygon fill="#0d377f" stroke="#0d377f" points="176.8816,-372 117.8816,-372 117.8816,-309 176.8816,-309 176.8816,-372"/>
<text text-anchor="middle" x="147.3816" y="-360" font-family="Arial" font-size="10.00" fill="#ffffff">ld&#45;2.26.so</text>
<text text-anchor="middle" x="147.3816" y="-349" font-family="Arial" font-size="10.00" fill="#ffffff">calloc</text>
<text text-anchor="middle" x="147.3816" y="-338" font-family="Arial" font-size="10.00" fill="#ffffff">9.37%</text>
<text text-anchor="middle" x="147.3816" y="-327" font-family="Arial" font-size="10.00" fill="#ffffff">(2.80%)</text>
<text text-anchor="middle" x="147.3816" y="-316" font-family="Arial" font-size="10.00" fill="#ffffff">167554×</text>
</g>
<!-- main&#45;&gt;calloc -->
<g id="edge12" class="edge">
<title>main&#45;&gt;calloc</title>
<path fill="none" stroke="#0d367f" stroke-width=".5" d="M147.3816,-411.7562C147.3816,-400.3998 147.3816,-387.5328 147.3816,-375.888"/>
<polygon fill="#0d367f" stroke="#0d367f" stroke-width=".5" points="148.6067,-375.8163 147.3816,-372.3163 146.1567,-375.8164 148.6067,-375.8163"/>
<text text-anchor="middle" x="166.3816" y="-395" font-family="Arial" font-size="10.00" fill="#0d367f">9.17%</text>
<text text-anchor="middle" x="166.3816" y="-384" font-family="Arial" font-size="10.00" fill="#0d367f">167518×</text>
</g>
<!-- decode_byte -->
<g id="node12" class="node">
<title>decode_byte</title>
<polygon fill="#e79604" stroke="#e79604" points="342.3816,-372 270.3816,-372 270.3816,-309 342.3816,-309 342.3816,-372"/>
<text text-anchor="middle" x="306.3816" y="-360" font-family="Arial" font-size="10.00" fill="#ffffff">viz&#45;release</text>
<text text-anchor="middle" x="306.3816" y="-349" font-family="Arial" font-size="10.00" fill="#ffffff">decode_byte</text>
<text text-anchor="middle" x="306.3816" y="-338" font-family="Arial" font-size="10.00" fill="#ffffff">83.87%</text>
<text text-anchor="middle" x="306.3816" y="-327" font-family="Arial" font-size="10.00" fill="#ffffff">(11.45%)</text>
<text text-anchor="middle" x="306.3816" y="-316" font-family="Arial" font-size="10.00" fill="#ffffff">167542×</text>
</g>
<!-- main&#45;&gt;decode_byte -->
<g id="edge13" class="edge">
<title>main&#45;&gt;decode_byte</title>
<path fill="none" stroke="#e79604" stroke-width="3.35" d="M179.5577,-422.6564C203.406,-407.2075 236.1873,-385.9718 262.4472,-368.9607"/>
<polygon fill="#e79604" stroke="#e79604" stroke-width="3.35" points="264.3996,-371.5325 270.3704,-363.828 260.8982,-366.1275 264.3996,-371.5325"/>
<text text-anchor="middle" x="260.3816" y="-395" font-family="Arial" font-size="10.00" fill="#e79604">83.87%</text>
<text text-anchor="middle" x="260.3816" y="-384" font-family="Arial" font-size="10.00" fill="#e79604">167542×</text>
</g>
<!-- 0x0000000000000f30 -->
<g id="node3" class="node">
<title>0x0000000000000f30</title>
<polygon fill="#ff0000" stroke="#ff0000" points="201.8816,-784 92.8816,-784 92.8816,-721 201.8816,-721 201.8816,-784"/>
<text text-anchor="middle" x="147.3816" y="-772" font-family="Arial" font-size="10.00" fill="#ffffff">ld&#45;2.26.so</text>
<text text-anchor="middle" x="147.3816" y="-761" font-family="Arial" font-size="10.00" fill="#ffffff">0x0000000000000f30</text>
<text text-anchor="middle" x="147.3816" y="-750" font-family="Arial" font-size="10.00" fill="#ffffff">100.00%</text>
<text text-anchor="middle" x="147.3816" y="-739" font-family="Arial" font-size="10.00" fill="#ffffff">(0.00%)</text>
<text text-anchor="middle" x="147.3816" y="-728" font-family="Arial" font-size="10.00" fill="#ffffff">0×</text>
</g>
<!-- _start -->
<g id="node4" class="node">
<title>_start</title>
<polygon fill="#ff0000" stroke="#ff0000" points="179.3816,-681 115.3816,-681 115.3816,-618 179.3816,-618 179.3816,-681"/>
<text text-anchor="middle" x="147.3816" y="-669" font-family="Arial" font-size="10.00" fill="#ffffff">viz&#45;release</text>
<text text-anchor="middle" x="147.3816" y="-658" font-family="Arial" font-size="10.00" fill="#ffffff">_start</text>
<text text-anchor="middle" x="147.3816" y="-647" font-family="Arial" font-size="10.00" fill="#ffffff">99.96%</text>
<text text-anchor="middle" x="147.3816" y="-636" font-family="Arial" font-size="10.00" fill="#ffffff">(0.00%)</text>
<text text-anchor="middle" x="147.3816" y="-625" font-family="Arial" font-size="10.00" fill="#ffffff">1×</text>
</g>
<!-- 0x0000000000000f30&#45;&gt;_start -->
<g id="edge2" class="edge">
<title>0x0000000000000f30&#45;&gt;_start</title>
<path fill="none" stroke="#ff0000" stroke-width="4" d="M147.3816,-720.7562C147.3816,-711.5536 147.3816,-701.3591 147.3816,-691.6267"/>
<polygon fill="#ff0000" stroke="#ff0000" stroke-width="4" points="150.8817,-691.3163 147.3816,-681.3163 143.8817,-691.3164 150.8817,-691.3163"/>
<text text-anchor="middle" x="164.3816" y="-704" font-family="Arial" font-size="10.00" fill="#ff0000">99.96%</text>
<text text-anchor="middle" x="164.3816" y="-693" font-family="Arial" font-size="10.00" fill="#ff0000">1×</text>
</g>
<!-- _start&#45;&gt;(below main) -->
<g id="edge3" class="edge">
<title>_start&#45;&gt;(below main)</title>
<path fill="none" stroke="#ff0000" stroke-width="4" d="M147.3816,-617.7562C147.3816,-608.5536 147.3816,-598.3591 147.3816,-588.6267"/>
<polygon fill="#ff0000" stroke="#ff0000" stroke-width="4" points="150.8817,-588.3163 147.3816,-578.3163 143.8817,-588.3164 150.8817,-588.3163"/>
<text text-anchor="middle" x="164.3816" y="-601" font-family="Arial" font-size="10.00" fill="#ff0000">99.96%</text>
<text text-anchor="middle" x="164.3816" y="-590" font-family="Arial" font-size="10.00" fill="#ff0000">1×</text>
</g>
<!-- __memset_avx2_unaligned_erms -->
<g id="node5" class="node">
<title>__memset_avx2_unaligned_erms</title>
<polygon fill="#0d1375" stroke="#0d1375" points="183.3816,-269 21.3816,-269 21.3816,-206 183.3816,-206 183.3816,-269"/>
<text text-anchor="middle" x="102.3816" y="-257" font-family="Arial" font-size="10.00" fill="#ffffff">libc&#45;2.26.so</text>
<text text-anchor="middle" x="102.3816" y="-246" font-family="Arial" font-size="10.00" fill="#ffffff">__memset_avx2_unaligned_erms</text>
<text text-anchor="middle" x="102.3816" y="-235" font-family="Arial" font-size="10.00" fill="#ffffff">1.59%</text>
<text text-anchor="middle" x="102.3816" y="-224" font-family="Arial" font-size="10.00" fill="#ffffff">(1.40%)</text>
<text text-anchor="middle" x="102.3816" y="-213" font-family="Arial" font-size="10.00" fill="#ffffff">167544×</text>
</g>
<!-- _int_free -->
<g id="node6" class="node">
<title>_int_free</title>
<polygon fill="#0c7a8e" stroke="#0c7a8e" points="311.8816,-63 244.8816,-63 244.8816,0 311.8816,0 311.8816,-63"/>
<text text-anchor="middle" x="278.3816" y="-51" font-family="Arial" font-size="10.00" fill="#ffffff">libc&#45;2.26.so</text>
<text text-anchor="middle" x="278.3816" y="-40" font-family="Arial" font-size="10.00" fill="#ffffff">_int_free</text>
<text text-anchor="middle" x="278.3816" y="-29" font-family="Arial" font-size="10.00" fill="#ffffff">21.10%</text>
<text text-anchor="middle" x="278.3816" y="-18" font-family="Arial" font-size="10.00" fill="#ffffff">(21.10%)</text>
<text text-anchor="middle" x="278.3816" y="-7" font-family="Arial" font-size="10.00" fill="#ffffff">1340090×</text>
</g>
<!-- _int_malloc -->
<g id="node7" class="node">
<title>_int_malloc</title>
<polygon fill="#0d2279" stroke="#0d2279" points="259.8816,-269 192.8816,-269 192.8816,-206 259.8816,-206 259.8816,-269"/>
<text text-anchor="middle" x="226.3816" y="-257" font-family="Arial" font-size="10.00" fill="#ffffff">libc&#45;2.26.so</text>
<text text-anchor="middle" x="226.3816" y="-246" font-family="Arial" font-size="10.00" fill="#ffffff">_int_malloc</text>
<text text-anchor="middle" x="226.3816" y="-235" font-family="Arial" font-size="10.00" fill="#ffffff">4.99%</text>
<text text-anchor="middle" x="226.3816" y="-224" font-family="Arial" font-size="10.00" fill="#ffffff">(4.99%)</text>
<text text-anchor="middle" x="226.3816" y="-213" font-family="Arial" font-size="10.00" fill="#ffffff">167735×</text>
</g>
<!-- add_new_element -->
<g id="node8" class="node">
<title>add_new_element</title>
<polygon fill="#44c108" stroke="#44c108" points="420.8816,-269 325.8816,-269 325.8816,-206 420.8816,-206 420.8816,-269"/>
<text text-anchor="middle" x="373.3816" y="-257" font-family="Arial" font-size="10.00" fill="#ffffff">viz&#45;release</text>
<text text-anchor="middle" x="373.3816" y="-246" font-family="Arial" font-size="10.00" fill="#ffffff">add_new_element</text>
<text text-anchor="middle" x="373.3816" y="-235" font-family="Arial" font-size="10.00" fill="#ffffff">58.12%</text>
<text text-anchor="middle" x="373.3816" y="-224" font-family="Arial" font-size="10.00" fill="#ffffff">(38.99%)</text>
<text text-anchor="middle" x="373.3816" y="-213" font-family="Arial" font-size="10.00" fill="#ffffff">167518×</text>
</g>
<!-- add_new_element&#45;&gt;free -->
<g id="edge4" class="edge">
<title>add_new_element&#45;&gt;free</title>
<path fill="none" stroke="#0d4b84" stroke-width=".53" d="M344.1033,-205.7562C333.3582,-194.1061 321.1467,-180.8663 310.19,-168.987"/>
<polygon fill="#0d4b84" stroke="#0d4b84" stroke-width=".53" points="311.0938,-168.1084 307.7268,-166.3163 309.2414,-169.8169 311.0938,-168.1084"/>
<text text-anchor="middle" x="353.3816" y="-189" font-family="Arial" font-size="10.00" fill="#0d4b84">13.16%</text>
<text text-anchor="middle" x="353.3816" y="-178" font-family="Arial" font-size="10.00" fill="#0d4b84">670071×</text>
</g>
<!-- malloc -->
<g id="node10" class="node">
<title>malloc</title>
<polygon fill="#0d3c80" stroke="#0d3c80" points="439.8816,-166 380.8816,-166 380.8816,-103 439.8816,-103 439.8816,-166"/>
<text text-anchor="middle" x="410.3816" y="-154" font-family="Arial" font-size="10.00" fill="#ffffff">ld&#45;2.26.so</text>
<text text-anchor="middle" x="410.3816" y="-143" font-family="Arial" font-size="10.00" fill="#ffffff">malloc</text>
<text text-anchor="middle" x="410.3816" y="-132" font-family="Arial" font-size="10.00" fill="#ffffff">10.29%</text>
<text text-anchor="middle" x="410.3816" y="-121" font-family="Arial" font-size="10.00" fill="#ffffff">(10.26%)</text>
<text text-anchor="middle" x="410.3816" y="-110" font-family="Arial" font-size="10.00" fill="#ffffff">1172574×</text>
</g>
<!-- add_new_element&#45;&gt;malloc -->
<g id="edge5" class="edge">
<title>add_new_element&#45;&gt;malloc</title>
<path fill="none" stroke="#0d267a" stroke-width=".5" d="M383.6389,-205.9137C386.9592,-195.982 390.7293,-184.9994 394.3816,-175 395.0301,-173.2247 395.7044,-171.4099 396.3935,-169.5802"/>
<polygon fill="#0d267a" stroke="#0d267a" stroke-width=".5" points="397.5508,-169.9831 397.6472,-166.2761 395.2602,-169.1139 397.5508,-169.9831"/>
<text text-anchor="middle" x="413.3816" y="-189" font-family="Arial" font-size="10.00" fill="#0d267a">5.85%</text>
<text text-anchor="middle" x="413.3816" y="-178" font-family="Arial" font-size="10.00" fill="#0d267a">670248×</text>
</g>
<!-- free&#45;&gt;_int_free -->
<g id="edge11" class="edge">
<title>free&#45;&gt;_int_free</title>
<path fill="none" stroke="#0c7a8e" stroke-width=".84" d="M278.3816,-102.7562C278.3816,-91.7914 278.3816,-79.4184 278.3816,-68.0969"/>
<polygon fill="#0c7a8e" stroke="#0c7a8e" stroke-width=".84" points="279.9917,-67.9163 278.3816,-63.3163 276.7717,-67.9164 279.9917,-67.9163"/>
<text text-anchor="middle" x="299.8816" y="-86" font-family="Arial" font-size="10.00" fill="#0c7a8e">21.10%</text>
<text text-anchor="middle" x="299.8816" y="-75" font-family="Arial" font-size="10.00" fill="#0c7a8e">1340090×</text>
</g>
<!-- calloc&#45;&gt;__memset_avx2_unaligned_erms -->
<g id="edge6" class="edge">
<title>calloc&#45;&gt;__memset_avx2_unaligned_erms</title>
<path fill="none" stroke="#0d1375" stroke-width=".5" d="M133.513,-308.7562C128.5087,-297.3019 122.833,-284.3109 117.7109,-272.5871"/>
<polygon fill="#0d1375" stroke="#0d1375" stroke-width=".5" points="118.8058,-272.0332 116.282,-269.3163 116.5607,-273.0141 118.8058,-272.0332"/>
<text text-anchor="middle" x="148.3816" y="-292" font-family="Arial" font-size="10.00" fill="#0d1375">1.59%</text>
<text text-anchor="middle" x="148.3816" y="-281" font-family="Arial" font-size="10.00" fill="#0d1375">167544×</text>
</g>
<!-- calloc&#45;&gt;_int_malloc -->
<g id="edge7" class="edge">
<title>calloc&#45;&gt;_int_malloc</title>
<path fill="none" stroke="#0d2279" stroke-width=".5" d="M171.7289,-308.7562C180.5892,-297.204 190.6486,-284.0887 199.7005,-272.2868"/>
<polygon fill="#0d2279" stroke="#0d2279" stroke-width=".5" points="200.8207,-272.8391 201.9788,-269.3163 198.8767,-271.348 200.8207,-272.8391"/>
<text text-anchor="middle" x="213.3816" y="-292" font-family="Arial" font-size="10.00" fill="#0d2279">4.98%</text>
<text text-anchor="middle" x="213.3816" y="-281" font-family="Arial" font-size="10.00" fill="#0d2279">167545×</text>
</g>
<!-- decode_byte&#45;&gt;add_new_element -->
<g id="edge8" class="edge">
<title>decode_byte&#45;&gt;add_new_element</title>
<path fill="none" stroke="#44c108" stroke-width="2.32" d="M327.0305,-308.7562C333.7808,-298.3788 341.3517,-286.7401 348.3867,-275.9251"/>
<polygon fill="#44c108" stroke="#44c108" stroke-width="2.32" points="350.7712,-277.1376 352.6856,-269.3163 346.3117,-274.2367 350.7712,-277.1376"/>
<text text-anchor="middle" x="364.3816" y="-292" font-family="Arial" font-size="10.00" fill="#44c108">58.12%</text>
<text text-anchor="middle" x="364.3816" y="-281" font-family="Arial" font-size="10.00" fill="#44c108">167518×</text>
</g>
<!-- decode_byte&#45;&gt;free -->
<g id="edge9" class="edge">
<title>decode_byte&#45;&gt;free</title>
<path fill="none" stroke="#0d3a7f" stroke-width=".5" d="M294.1709,-308.9387C289.9685,-296.6605 285.7319,-282.356 283.3816,-269 277.5099,-235.6331 276.6854,-196.9181 277.0745,-169.6163"/>
<polygon fill="#0d3a7f" stroke="#0d3a7f" stroke-width=".5" points="278.301,-169.5291 277.1339,-166.0094 275.8513,-169.4887 278.301,-169.5291"/>
<text text-anchor="middle" x="302.3816" y="-240.5" font-family="Arial" font-size="10.00" fill="#0d3a7f">9.87%</text>
<text text-anchor="middle" x="302.3816" y="-229.5" font-family="Arial" font-size="10.00" fill="#0d3a7f">502290×</text>
</g>
<!-- decode_byte&#45;&gt;malloc -->
<g id="edge10" class="edge">
<title>decode_byte&#45;&gt;malloc</title>
<path fill="none" stroke="#0d2078" stroke-width=".5" d="M342.5058,-330.072C370.93,-319.7035 408.4675,-300.6795 425.3816,-269 445.0863,-232.0941 439.893,-215.7413 430.3816,-175 429.9794,-173.277 429.4927,-171.5431 428.9396,-169.8137"/>
<polygon fill="#0d2078" stroke="#0d2078" stroke-width=".5" points="430.0177,-169.1828 427.7166,-166.2749 427.7021,-169.983 430.0177,-169.1828"/>
<text text-anchor="middle" x="457.3816" y="-240.5" font-family="Arial" font-size="10.00" fill="#0d2078">4.44%</text>
<text text-anchor="middle" x="457.3816" y="-229.5" font-family="Arial" font-size="10.00" fill="#0d2078">502290×</text>
</g>
</g>
</svg>
