<?xml version="1.0" encoding="UTF-8" standalone="no"?>
<!DOCTYPE svg PUBLIC "-//W3C//DTD SVG 1.1//EN"
 "http://www.w3.org/Graphics/SVG/1.1/DTD/svg11.dtd">
<!-- Generated by graphviz version 2.40.1 (20161225.0304)
 -->
<!-- Title: %3 Pages: 1 -->
<svg width="323pt" height="689pt"
 viewBox="0.00 0.00 322.50 689.00" xmlns="http://www.w3.org/2000/svg" xmlns:xlink="http://www.w3.org/1999/xlink">
<g id="graph0" class="graph" transform="scale(1 1) rotate(0) translate(4 685)">
<title>%3</title>
<polygon fill="#ffffff" stroke="transparent" points="-4,4 -4,-685 318.5,-685 318.5,4 -4,4"/>
<!-- (below main) -->
<g id="node1" class="node">
<title>(below main)</title>
<polygon fill="#ff0100" stroke="#ff0100" points="190,-475 119,-475 119,-412 190,-412 190,-475"/>
<text text-anchor="middle" x="154.5" y="-463" font-family="Arial" font-size="10.00" fill="#ffffff">libc&#45;2.26.so</text>
<text text-anchor="middle" x="154.5" y="-452" font-family="Arial" font-size="10.00" fill="#ffffff">(below main)</text>
<text text-anchor="middle" x="154.5" y="-441" font-family="Arial" font-size="10.00" fill="#ffffff">99.94%</text>
<text text-anchor="middle" x="154.5" y="-430" font-family="Arial" font-size="10.00" fill="#ffffff">(0.00%)</text>
<text text-anchor="middle" x="154.5" y="-419" font-family="Arial" font-size="10.00" fill="#ffffff">1×</text>
</g>
<!-- main -->
<g id="node2" class="node">
<title>main</title>
<polygon fill="#ff0100" stroke="#ff0100" points="186.5,-372 122.5,-372 122.5,-309 186.5,-309 186.5,-372"/>
<text text-anchor="middle" x="154.5" y="-360" font-family="Arial" font-size="10.00" fill="#ffffff">viz&#45;release</text>
<text text-anchor="middle" x="154.5" y="-349" font-family="Arial" font-size="10.00" fill="#ffffff">main</text>
<text text-anchor="middle" x="154.5" y="-338" font-family="Arial" font-size="10.00" fill="#ffffff">99.94%</text>
<text text-anchor="middle" x="154.5" y="-327" font-family="Arial" font-size="10.00" fill="#ffffff">(0.83%)</text>
<text text-anchor="middle" x="154.5" y="-316" font-family="Arial" font-size="10.00" fill="#ffffff">1×</text>
</g>
<!-- (below main)&#45;&gt;main -->
<g id="edge1" class="edge">
<title>(below main)&#45;&gt;main</title>
<path fill="none" stroke="#ff0100" stroke-width="4" d="M154.5,-411.7562C154.5,-402.5536 154.5,-392.3591 154.5,-382.6267"/>
<polygon fill="#ff0100" stroke="#ff0100" stroke-width="4" points="158.0001,-382.3163 154.5,-372.3163 151.0001,-382.3164 158.0001,-382.3163"/>
<text text-anchor="middle" x="171.5" y="-395" font-family="Arial" font-size="10.00" fill="#ff0100">99.94%</text>
<text text-anchor="middle" x="171.5" y="-384" font-family="Arial" font-size="10.00" fill="#ff0100">1×</text>
</g>
<!-- add_new_element -->
<g id="node8" class="node">
<title>add_new_element</title>
<polygon fill="#f63c01" stroke="#f63c01" points="157,-269 62,-269 62,-206 157,-206 157,-269"/>
<text text-anchor="middle" x="109.5" y="-257" font-family="Arial" font-size="10.00" fill="#ffffff">viz&#45;release</text>
<text text-anchor="middle" x="109.5" y="-246" font-family="Arial" font-size="10.00" fill="#ffffff">add_new_element</text>
<text text-anchor="middle" x="109.5" y="-235" font-family="Arial" font-size="10.00" fill="#ffffff">94.02%</text>
<text text-anchor="middle" x="109.5" y="-224" font-family="Arial" font-size="10.00" fill="#ffffff">(64.48%)</text>
<text text-anchor="middle" x="109.5" y="-213" font-family="Arial" font-size="10.00" fill="#ffffff">167518×</text>
</g>
<!-- main&#45;&gt;add_new_element -->
<g id="edge9" class="edge">
<title>main&#45;&gt;add_new_element</title>
<path fill="none" stroke="#f63c01" stroke-width="3.76" d="M140.6313,-308.7562C136.4397,-299.162 131.777,-288.4897 127.3632,-278.3869"/>
<polygon fill="#f63c01" stroke="#f63c01" stroke-width="3.76" points="130.3949,-276.8458 123.4003,-269.3163 124.1728,-279.5643 130.3949,-276.8458"/>
<text text-anchor="middle" x="155.5" y="-292" font-family="Arial" font-size="10.00" fill="#f63c01">94.02%</text>
<text text-anchor="middle" x="155.5" y="-281" font-family="Arial" font-size="10.00" fill="#f63c01">167518×</text>
</g>
<!-- fwrite -->
<g id="node11" class="node">
<title>fwrite</title>
<polygon fill="#0d2379" stroke="#0d2379" points="241,-269 174,-269 174,-206 241,-206 241,-269"/>
<text text-anchor="middle" x="207.5" y="-257" font-family="Arial" font-size="10.00" fill="#ffffff">libc&#45;2.26.so</text>
<text text-anchor="middle" x="207.5" y="-246" font-family="Arial" font-size="10.00" fill="#ffffff">fwrite</text>
<text text-anchor="middle" x="207.5" y="-235" font-family="Arial" font-size="10.00" fill="#ffffff">5.06%</text>
<text text-anchor="middle" x="207.5" y="-224" font-family="Arial" font-size="10.00" fill="#ffffff">(2.71%)</text>
<text text-anchor="middle" x="207.5" y="-213" font-family="Arial" font-size="10.00" fill="#ffffff">96723×</text>
</g>
<!-- main&#45;&gt;fwrite -->
<g id="edge10" class="edge">
<title>main&#45;&gt;fwrite</title>
<path fill="none" stroke="#0d2379" stroke-width=".5" d="M171.9058,-308.7237C173.4734,-305.782 175.0248,-302.8404 176.5,-300 181.124,-291.097 186.001,-281.4124 190.4833,-272.3839"/>
<polygon fill="#0d2379" stroke="#0d2379" stroke-width=".5" points="191.6591,-272.77 192.1156,-269.09 189.4638,-271.6821 191.6591,-272.77"/>
<text text-anchor="middle" x="204" y="-292" font-family="Arial" font-size="10.00" fill="#0d2379">5.06%</text>
<text text-anchor="middle" x="204" y="-281" font-family="Arial" font-size="10.00" fill="#0d2379">96723×</text>
</g>
<!-- 0x0000000000000f30 -->
<g id="node3" class="node">
<title>0x0000000000000f30</title>
<polygon fill="#ff0000" stroke="#ff0000" points="209,-681 100,-681 100,-618 209,-618 209,-681"/>
<text text-anchor="middle" x="154.5" y="-669" font-family="Arial" font-size="10.00" fill="#ffffff">ld&#45;2.26.so</text>
<text text-anchor="middle" x="154.5" y="-658" font-family="Arial" font-size="10.00" fill="#ffffff">0x0000000000000f30</text>
<text text-anchor="middle" x="154.5" y="-647" font-family="Arial" font-size="10.00" fill="#ffffff">100.00%</text>
<text text-anchor="middle" x="154.5" y="-636" font-family="Arial" font-size="10.00" fill="#ffffff">(0.00%)</text>
<text text-anchor="middle" x="154.5" y="-625" font-family="Arial" font-size="10.00" fill="#ffffff">0×</text>
</g>
<!-- _start -->
<g id="node4" class="node">
<title>_start</title>
<polygon fill="#ff0100" stroke="#ff0100" points="186.5,-578 122.5,-578 122.5,-515 186.5,-515 186.5,-578"/>
<text text-anchor="middle" x="154.5" y="-566" font-family="Arial" font-size="10.00" fill="#ffffff">viz&#45;release</text>
<text text-anchor="middle" x="154.5" y="-555" font-family="Arial" font-size="10.00" fill="#ffffff">_start</text>
<text text-anchor="middle" x="154.5" y="-544" font-family="Arial" font-size="10.00" fill="#ffffff">99.94%</text>
<text text-anchor="middle" x="154.5" y="-533" font-family="Arial" font-size="10.00" fill="#ffffff">(0.00%)</text>
<text text-anchor="middle" x="154.5" y="-522" font-family="Arial" font-size="10.00" fill="#ffffff">1×</text>
</g>
<!-- 0x0000000000000f30&#45;&gt;_start -->
<g id="edge2" class="edge">
<title>0x0000000000000f30&#45;&gt;_start</title>
<path fill="none" stroke="#ff0100" stroke-width="4" d="M154.5,-617.7562C154.5,-608.5536 154.5,-598.3591 154.5,-588.6267"/>
<polygon fill="#ff0100" stroke="#ff0100" stroke-width="4" points="158.0001,-588.3163 154.5,-578.3163 151.0001,-588.3164 158.0001,-588.3163"/>
<text text-anchor="middle" x="171.5" y="-601" font-family="Arial" font-size="10.00" fill="#ff0100">99.94%</text>
<text text-anchor="middle" x="171.5" y="-590" font-family="Arial" font-size="10.00" fill="#ff0100">1×</text>
</g>
<!-- _start&#45;&gt;(below main) -->
<g id="edge4" class="edge">
<title>_start&#45;&gt;(below main)</title>
<path fill="none" stroke="#ff0100" stroke-width="4" d="M154.5,-514.7562C154.5,-505.5536 154.5,-495.3591 154.5,-485.6267"/>
<polygon fill="#ff0100" stroke="#ff0100" stroke-width="4" points="158.0001,-485.3163 154.5,-475.3163 151.0001,-485.3164 158.0001,-485.3163"/>
<text text-anchor="middle" x="171.5" y="-498" font-family="Arial" font-size="10.00" fill="#ff0100">99.94%</text>
<text text-anchor="middle" x="171.5" y="-487" font-family="Arial" font-size="10.00" fill="#ff0100">1×</text>
</g>
<!-- _IO_file_xsputn@@GLIBC_2.2.5 -->
<g id="node5" class="node">
<title>_IO_file_xsputn@@GLIBC_2.2.5</title>
<polygon fill="#0d1776" stroke="#0d1776" points="313,-166 152,-166 152,-103 313,-103 313,-166"/>
<text text-anchor="middle" x="232.5" y="-154" font-family="Arial" font-size="10.00" fill="#ffffff">libc&#45;2.26.so</text>
<text text-anchor="middle" x="232.5" y="-143" font-family="Arial" font-size="10.00" fill="#ffffff">_IO_file_xsputn@@GLIBC_2.2.5</text>
<text text-anchor="middle" x="232.5" y="-132" font-family="Arial" font-size="10.00" fill="#ffffff">2.35%</text>
<text text-anchor="middle" x="232.5" y="-121" font-family="Arial" font-size="10.00" fill="#ffffff">(1.72%)</text>
<text text-anchor="middle" x="232.5" y="-110" font-family="Arial" font-size="10.00" fill="#ffffff">96739×</text>
</g>
<!-- __mempcpy_avx_unaligned_erms -->
<g id="node6" class="node">
<title>__mempcpy_avx_unaligned_erms</title>
<polygon fill="#0d0f74" stroke="#0d0f74" points="314.5,-63 150.5,-63 150.5,0 314.5,0 314.5,-63"/>
<text text-anchor="middle" x="232.5" y="-51" font-family="Arial" font-size="10.00" fill="#ffffff">libc&#45;2.26.so</text>
<text text-anchor="middle" x="232.5" y="-40" font-family="Arial" font-size="10.00" fill="#ffffff">__mempcpy_avx_unaligned_erms</text>
<text text-anchor="middle" x="232.5" y="-29" font-family="Arial" font-size="10.00" fill="#ffffff">0.63%</text>
<text text-anchor="middle" x="232.5" y="-18" font-family="Arial" font-size="10.00" fill="#ffffff">(0.63%)</text>
<text text-anchor="middle" x="232.5" y="-7" font-family="Arial" font-size="10.00" fill="#ffffff">96708×</text>
</g>
<!-- _IO_file_xsputn@@GLIBC_2.2.5&#45;&gt;__mempcpy_avx_unaligned_erms -->
<g id="edge3" class="edge">
<title>_IO_file_xsputn@@GLIBC_2.2.5&#45;&gt;__mempcpy_avx_unaligned_erms</title>
<path fill="none" stroke="#0d0f74" stroke-width=".5" d="M232.5,-102.7562C232.5,-91.3998 232.5,-78.5328 232.5,-66.888"/>
<polygon fill="#0d0f74" stroke="#0d0f74" stroke-width=".5" points="233.7251,-66.8163 232.5,-63.3163 231.2751,-66.8164 233.7251,-66.8163"/>
<text text-anchor="middle" x="249" y="-86" font-family="Arial" font-size="10.00" fill="#0d0f74">0.63%</text>
<text text-anchor="middle" x="249" y="-75" font-family="Arial" font-size="10.00" fill="#0d0f74">96708×</text>
</g>
<!-- _int_free -->
<g id="node7" class="node">
<title>_int_free</title>
<polygon fill="#0c5486" stroke="#0c5486" points="67,-63 0,-63 0,0 67,0 67,-63"/>
<text text-anchor="middle" x="33.5" y="-51" font-family="Arial" font-size="10.00" fill="#ffffff">libc&#45;2.26.so</text>
<text text-anchor="middle" x="33.5" y="-40" font-family="Arial" font-size="10.00" fill="#ffffff">_int_free</text>
<text text-anchor="middle" x="33.5" y="-29" font-family="Arial" font-size="10.00" fill="#ffffff">14.70%</text>
<text text-anchor="middle" x="33.5" y="-18" font-family="Arial" font-size="10.00" fill="#ffffff">(14.70%)</text>
<text text-anchor="middle" x="33.5" y="-7" font-family="Arial" font-size="10.00" fill="#ffffff">670352×</text>
</g>
<!-- free -->
<g id="node9" class="node">
<title>free</title>
<polygon fill="#0c758d" stroke="#0c758d" points="67,-166 0,-166 0,-103 67,-103 67,-166"/>
<text text-anchor="middle" x="33.5" y="-154" font-family="Arial" font-size="10.00" fill="#ffffff">libc&#45;2.26.so</text>
<text text-anchor="middle" x="33.5" y="-143" font-family="Arial" font-size="10.00" fill="#ffffff">free</text>
<text text-anchor="middle" x="33.5" y="-132" font-family="Arial" font-size="10.00" fill="#ffffff">20.28%</text>
<text text-anchor="middle" x="33.5" y="-121" font-family="Arial" font-size="10.00" fill="#ffffff">(5.58%)</text>
<text text-anchor="middle" x="33.5" y="-110" font-family="Arial" font-size="10.00" fill="#ffffff">670353×</text>
</g>
<!-- add_new_element&#45;&gt;free -->
<g id="edge5" class="edge">
<title>add_new_element&#45;&gt;free</title>
<path fill="none" stroke="#0c758d" stroke-width=".81" d="M76.8323,-205.9115C74.2565,-202.9805 71.7753,-199.9876 69.5,-197 63.2408,-188.7815 57.277,-179.3691 52.0683,-170.3859"/>
<polygon fill="#0c758d" stroke="#0c758d" stroke-width=".81" points="53.1732,-169.1444 49.574,-166.0176 50.4377,-170.7064 53.1732,-169.1444"/>
<text text-anchor="middle" x="88.5" y="-189" font-family="Arial" font-size="10.00" fill="#0c758d">20.27%</text>
<text text-anchor="middle" x="88.5" y="-178" font-family="Arial" font-size="10.00" fill="#0c758d">670071×</text>
</g>
<!-- malloc -->
<g id="node10" class="node">
<title>malloc</title>
<polygon fill="#0d367e" stroke="#0d367e" points="143,-166 76,-166 76,-103 143,-103 143,-166"/>
<text text-anchor="middle" x="109.5" y="-154" font-family="Arial" font-size="10.00" fill="#ffffff">libc&#45;2.26.so</text>
<text text-anchor="middle" x="109.5" y="-143" font-family="Arial" font-size="10.00" fill="#ffffff">malloc</text>
<text text-anchor="middle" x="109.5" y="-132" font-family="Arial" font-size="10.00" fill="#ffffff">9.02%</text>
<text text-anchor="middle" x="109.5" y="-121" font-family="Arial" font-size="10.00" fill="#ffffff">(8.98%)</text>
<text text-anchor="middle" x="109.5" y="-110" font-family="Arial" font-size="10.00" fill="#ffffff">670290×</text>
</g>
<!-- add_new_element&#45;&gt;malloc -->
<g id="edge6" class="edge">
<title>add_new_element&#45;&gt;malloc</title>
<path fill="none" stroke="#0d367e" stroke-width=".5" d="M109.5,-205.7562C109.5,-194.3998 109.5,-181.5328 109.5,-169.888"/>
<polygon fill="#0d367e" stroke="#0d367e" stroke-width=".5" points="110.7251,-169.8163 109.5,-166.3163 108.2751,-169.8164 110.7251,-169.8163"/>
<text text-anchor="middle" x="128.5" y="-189" font-family="Arial" font-size="10.00" fill="#0d367e">9.01%</text>
<text text-anchor="middle" x="128.5" y="-178" font-family="Arial" font-size="10.00" fill="#0d367e">670248×</text>
</g>
<!-- free&#45;&gt;_int_free -->
<g id="edge7" class="edge">
<title>free&#45;&gt;_int_free</title>
<path fill="none" stroke="#0c5486" stroke-width=".59" d="M33.5,-102.7562C33.5,-91.4977 33.5,-78.7546 33.5,-67.1894"/>
<polygon fill="#0c5486" stroke="#0c5486" stroke-width=".59" points="34.8301,-67.1163 33.5,-63.3163 32.1701,-67.1164 34.8301,-67.1163"/>
<text text-anchor="middle" x="52.5" y="-86" font-family="Arial" font-size="10.00" fill="#0c5486">14.70%</text>
<text text-anchor="middle" x="52.5" y="-75" font-family="Arial" font-size="10.00" fill="#0c5486">670352×</text>
</g>
<!-- fwrite&#45;&gt;_IO_file_xsputn@@GLIBC_2.2.5 -->
<g id="edge8" class="edge">
<title>fwrite&#45;&gt;_IO_file_xsputn@@GLIBC_2.2.5</title>
<path fill="none" stroke="#0d1776" stroke-width=".5" d="M215.2048,-205.7562C217.9612,-194.3998 221.0843,-181.5328 223.9107,-169.888"/>
<polygon fill="#0d1776" stroke="#0d1776" stroke-width=".5" points="225.1424,-170.0065 224.7776,-166.3163 222.7615,-169.4286 225.1424,-170.0065"/>
<text text-anchor="middle" x="238" y="-189" font-family="Arial" font-size="10.00" fill="#0d1776">2.35%</text>
<text text-anchor="middle" x="238" y="-178" font-family="Arial" font-size="10.00" fill="#0d1776">96724×</text>
</g>
</g>
</svg>
