<?xml version="1.0" encoding="UTF-8" standalone="no"?>
<!DOCTYPE svg PUBLIC "-//W3C//DTD SVG 1.1//EN"
 "http://www.w3.org/Graphics/SVG/1.1/DTD/svg11.dtd">
<!-- Generated by graphviz version 2.40.1 (20161225.0304)
 -->
<!-- Title: %3 Pages: 1 -->
<svg width="448pt" height="689pt"
 viewBox="0.00 0.00 448.00 689.00" xmlns="http://www.w3.org/2000/svg" xmlns:xlink="http://www.w3.org/1999/xlink">
<g id="graph0" class="graph" transform="scale(1 1) rotate(0) translate(4 685)">
<title>%3</title>
<polygon fill="#ffffff" stroke="transparent" points="-4,4 -4,-685 444,-685 444,4 -4,4"/>
<!-- (below main) -->
<g id="node1" class="node">
<title>(below main)</title>
<polygon fill="#ff0000" stroke="#ff0000" points="291,-475 220,-475 220,-412 291,-412 291,-475"/>
<text text-anchor="middle" x="255.5" y="-463" font-family="Arial" font-size="10.00" fill="#ffffff">libc&#45;2.26.so</text>
<text text-anchor="middle" x="255.5" y="-452" font-family="Arial" font-size="10.00" fill="#ffffff">(below main)</text>
<text text-anchor="middle" x="255.5" y="-441" font-family="Arial" font-size="10.00" fill="#ffffff">99.97%</text>
<text text-anchor="middle" x="255.5" y="-430" font-family="Arial" font-size="10.00" fill="#ffffff">(0.00%)</text>
<text text-anchor="middle" x="255.5" y="-419" font-family="Arial" font-size="10.00" fill="#ffffff">1×</text>
</g>
<!-- main -->
<g id="node2" class="node">
<title>main</title>
<polygon fill="#ff0000" stroke="#ff0000" points="287.5,-372 223.5,-372 223.5,-309 287.5,-309 287.5,-372"/>
<text text-anchor="middle" x="255.5" y="-360" font-family="Arial" font-size="10.00" fill="#ffffff">viz&#45;release</text>
<text text-anchor="middle" x="255.5" y="-349" font-family="Arial" font-size="10.00" fill="#ffffff">main</text>
<text text-anchor="middle" x="255.5" y="-338" font-family="Arial" font-size="10.00" fill="#ffffff">99.97%</text>
<text text-anchor="middle" x="255.5" y="-327" font-family="Arial" font-size="10.00" fill="#ffffff">(0.43%)</text>
<text text-anchor="middle" x="255.5" y="-316" font-family="Arial" font-size="10.00" fill="#ffffff">1×</text>
</g>
<!-- (below main)&#45;&gt;main -->
<g id="edge1" class="edge">
<title>(below main)&#45;&gt;main</title>
<path fill="none" stroke="#ff0000" stroke-width="4" d="M255.5,-411.7562C255.5,-402.5536 255.5,-392.3591 255.5,-382.6267"/>
<polygon fill="#ff0000" stroke="#ff0000" stroke-width="4" points="259.0001,-382.3163 255.5,-372.3163 252.0001,-382.3164 259.0001,-382.3163"/>
<text text-anchor="middle" x="272.5" y="-395" font-family="Arial" font-size="10.00" fill="#ff0000">99.97%</text>
<text text-anchor="middle" x="272.5" y="-384" font-family="Arial" font-size="10.00" fill="#ff0000">1×</text>
</g>
<!-- add_new_element -->
<g id="node7" class="node">
<title>add_new_element</title>
<polygon fill="#fa2001" stroke="#fa2001" points="258,-269 163,-269 163,-206 258,-206 258,-269"/>
<text text-anchor="middle" x="210.5" y="-257" font-family="Arial" font-size="10.00" fill="#ffffff">viz&#45;release</text>
<text text-anchor="middle" x="210.5" y="-246" font-family="Arial" font-size="10.00" fill="#ffffff">add_new_element</text>
<text text-anchor="middle" x="210.5" y="-235" font-family="Arial" font-size="10.00" fill="#ffffff">96.90%</text>
<text text-anchor="middle" x="210.5" y="-224" font-family="Arial" font-size="10.00" fill="#ffffff">(36.53%)</text>
<text text-anchor="middle" x="210.5" y="-213" font-family="Arial" font-size="10.00" fill="#ffffff">167518×</text>
</g>
<!-- main&#45;&gt;add_new_element -->
<g id="edge11" class="edge">
<title>main&#45;&gt;add_new_element</title>
<path fill="none" stroke="#fa2001" stroke-width="3.88" d="M241.6313,-308.7562C237.4397,-299.162 232.777,-288.4897 228.3632,-278.3869"/>
<polygon fill="#fa2001" stroke="#fa2001" stroke-width="3.88" points="231.467,-276.9235 224.4003,-269.3163 225.1807,-279.6699 231.467,-276.9235"/>
<text text-anchor="middle" x="256.5" y="-292" font-family="Arial" font-size="10.00" fill="#fa2001">96.90%</text>
<text text-anchor="middle" x="256.5" y="-281" font-family="Arial" font-size="10.00" fill="#fa2001">167518×</text>
</g>
<!-- fwrite -->
<g id="node12" class="node">
<title>fwrite</title>
<polygon fill="#0d1876" stroke="#0d1876" points="369,-269 302,-269 302,-206 369,-206 369,-269"/>
<text text-anchor="middle" x="335.5" y="-257" font-family="Arial" font-size="10.00" fill="#ffffff">libc&#45;2.26.so</text>
<text text-anchor="middle" x="335.5" y="-246" font-family="Arial" font-size="10.00" fill="#ffffff">fwrite</text>
<text text-anchor="middle" x="335.5" y="-235" font-family="Arial" font-size="10.00" fill="#ffffff">2.62%</text>
<text text-anchor="middle" x="335.5" y="-224" font-family="Arial" font-size="10.00" fill="#ffffff">(1.40%)</text>
<text text-anchor="middle" x="335.5" y="-213" font-family="Arial" font-size="10.00" fill="#ffffff">96723×</text>
</g>
<!-- main&#45;&gt;fwrite -->
<g id="edge12" class="edge">
<title>main&#45;&gt;fwrite</title>
<path fill="none" stroke="#0d1876" stroke-width=".5" d="M280.1554,-308.7562C289.1279,-297.204 299.3146,-284.0887 308.4811,-272.2868"/>
<polygon fill="#0d1876" stroke="#0d1876" stroke-width=".5" points="309.6088,-272.832 310.7883,-269.3163 307.6738,-271.3291 309.6088,-272.832"/>
<text text-anchor="middle" x="320" y="-292" font-family="Arial" font-size="10.00" fill="#0d1876">2.62%</text>
<text text-anchor="middle" x="320" y="-281" font-family="Arial" font-size="10.00" fill="#0d1876">96723×</text>
</g>
<!-- 0x0000000000000f30 -->
<g id="node3" class="node">
<title>0x0000000000000f30</title>
<polygon fill="#ff0000" stroke="#ff0000" points="310,-681 201,-681 201,-618 310,-618 310,-681"/>
<text text-anchor="middle" x="255.5" y="-669" font-family="Arial" font-size="10.00" fill="#ffffff">ld&#45;2.26.so</text>
<text text-anchor="middle" x="255.5" y="-658" font-family="Arial" font-size="10.00" fill="#ffffff">0x0000000000000f30</text>
<text text-anchor="middle" x="255.5" y="-647" font-family="Arial" font-size="10.00" fill="#ffffff">100.00%</text>
<text text-anchor="middle" x="255.5" y="-636" font-family="Arial" font-size="10.00" fill="#ffffff">(0.00%)</text>
<text text-anchor="middle" x="255.5" y="-625" font-family="Arial" font-size="10.00" fill="#ffffff">0×</text>
</g>
<!-- _start -->
<g id="node4" class="node">
<title>_start</title>
<polygon fill="#ff0000" stroke="#ff0000" points="287.5,-578 223.5,-578 223.5,-515 287.5,-515 287.5,-578"/>
<text text-anchor="middle" x="255.5" y="-566" font-family="Arial" font-size="10.00" fill="#ffffff">viz&#45;release</text>
<text text-anchor="middle" x="255.5" y="-555" font-family="Arial" font-size="10.00" fill="#ffffff">_start</text>
<text text-anchor="middle" x="255.5" y="-544" font-family="Arial" font-size="10.00" fill="#ffffff">99.97%</text>
<text text-anchor="middle" x="255.5" y="-533" font-family="Arial" font-size="10.00" fill="#ffffff">(0.00%)</text>
<text text-anchor="middle" x="255.5" y="-522" font-family="Arial" font-size="10.00" fill="#ffffff">1×</text>
</g>
<!-- 0x0000000000000f30&#45;&gt;_start -->
<g id="edge2" class="edge">
<title>0x0000000000000f30&#45;&gt;_start</title>
<path fill="none" stroke="#ff0000" stroke-width="4" d="M255.5,-617.7562C255.5,-608.5536 255.5,-598.3591 255.5,-588.6267"/>
<polygon fill="#ff0000" stroke="#ff0000" stroke-width="4" points="259.0001,-588.3163 255.5,-578.3163 252.0001,-588.3164 259.0001,-588.3163"/>
<text text-anchor="middle" x="272.5" y="-601" font-family="Arial" font-size="10.00" fill="#ff0000">99.97%</text>
<text text-anchor="middle" x="272.5" y="-590" font-family="Arial" font-size="10.00" fill="#ff0000">1×</text>
</g>
<!-- _start&#45;&gt;(below main) -->
<g id="edge3" class="edge">
<title>_start&#45;&gt;(below main)</title>
<path fill="none" stroke="#ff0000" stroke-width="4" d="M255.5,-514.7562C255.5,-505.5536 255.5,-495.3591 255.5,-485.6267"/>
<polygon fill="#ff0000" stroke="#ff0000" stroke-width="4" points="259.0001,-485.3163 255.5,-475.3163 252.0001,-485.3164 259.0001,-485.3163"/>
<text text-anchor="middle" x="272.5" y="-498" font-family="Arial" font-size="10.00" fill="#ff0000">99.97%</text>
<text text-anchor="middle" x="272.5" y="-487" font-family="Arial" font-size="10.00" fill="#ff0000">1×</text>
</g>
<!-- _IO_file_xsputn@@GLIBC_2.2.5 -->
<g id="node5" class="node">
<title>_IO_file_xsputn@@GLIBC_2.2.5</title>
<polygon fill="#0d1274" stroke="#0d1274" points="440,-166 279,-166 279,-103 440,-103 440,-166"/>
<text text-anchor="middle" x="359.5" y="-154" font-family="Arial" font-size="10.00" fill="#ffffff">libc&#45;2.26.so</text>
<text text-anchor="middle" x="359.5" y="-143" font-family="Arial" font-size="10.00" fill="#ffffff">_IO_file_xsputn@@GLIBC_2.2.5</text>
<text text-anchor="middle" x="359.5" y="-132" font-family="Arial" font-size="10.00" fill="#ffffff">1.22%</text>
<text text-anchor="middle" x="359.5" y="-121" font-family="Arial" font-size="10.00" fill="#ffffff">(0.89%)</text>
<text text-anchor="middle" x="359.5" y="-110" font-family="Arial" font-size="10.00" fill="#ffffff">96739×</text>
</g>
<!-- _int_free -->
<g id="node6" class="node">
<title>_int_free</title>
<polygon fill="#0d2f7d" stroke="#0d2f7d" points="202,-63 135,-63 135,0 202,0 202,-63"/>
<text text-anchor="middle" x="168.5" y="-51" font-family="Arial" font-size="10.00" fill="#ffffff">libc&#45;2.26.so</text>
<text text-anchor="middle" x="168.5" y="-40" font-family="Arial" font-size="10.00" fill="#ffffff">_int_free</text>
<text text-anchor="middle" x="168.5" y="-29" font-family="Arial" font-size="10.00" fill="#ffffff">7.62%</text>
<text text-anchor="middle" x="168.5" y="-18" font-family="Arial" font-size="10.00" fill="#ffffff">(7.62%)</text>
<text text-anchor="middle" x="168.5" y="-7" font-family="Arial" font-size="10.00" fill="#ffffff">670352×</text>
</g>
<!-- find_node -->
<g id="node8" class="node">
<title>find_node</title>
<polygon fill="#0aaf2b" stroke="#0aaf2b" points="102.5,-166 38.5,-166 38.5,-103 102.5,-103 102.5,-166"/>
<text text-anchor="middle" x="70.5" y="-154" font-family="Arial" font-size="10.00" fill="#ffffff">viz&#45;release</text>
<text text-anchor="middle" x="70.5" y="-143" font-family="Arial" font-size="10.00" fill="#ffffff">find_node</text>
<text text-anchor="middle" x="70.5" y="-132" font-family="Arial" font-size="10.00" fill="#ffffff">45.06%</text>
<text text-anchor="middle" x="70.5" y="-121" font-family="Arial" font-size="10.00" fill="#ffffff">(12.78%)</text>
<text text-anchor="middle" x="70.5" y="-110" font-family="Arial" font-size="10.00" fill="#ffffff">795701×</text>
</g>
<!-- add_new_element&#45;&gt;find_node -->
<g id="edge4" class="edge">
<title>add_new_element&#45;&gt;find_node</title>
<path fill="none" stroke="#0aaf2b" stroke-width="1.8" d="M162.8968,-215.7795C152.5111,-210.2316 141.8416,-203.8709 132.5,-197 122.2154,-189.4356 112.0414,-180.1534 103.0009,-171.0798"/>
<polygon fill="#0aaf2b" stroke="#0aaf2b" stroke-width="1.8" points="104.4634,-169.2214 98.1014,-166.0725 101.1111,-172.5015 104.4634,-169.2214"/>
<text text-anchor="middle" x="151.5" y="-189" font-family="Arial" font-size="10.00" fill="#0aaf2b">45.06%</text>
<text text-anchor="middle" x="151.5" y="-178" font-family="Arial" font-size="10.00" fill="#0aaf2b">795701×</text>
</g>
<!-- free -->
<g id="node9" class="node">
<title>free</title>
<polygon fill="#0d3d80" stroke="#0d3d80" points="194,-166 127,-166 127,-103 194,-103 194,-166"/>
<text text-anchor="middle" x="160.5" y="-154" font-family="Arial" font-size="10.00" fill="#ffffff">libc&#45;2.26.so</text>
<text text-anchor="middle" x="160.5" y="-143" font-family="Arial" font-size="10.00" fill="#ffffff">free</text>
<text text-anchor="middle" x="160.5" y="-132" font-family="Arial" font-size="10.00" fill="#ffffff">10.51%</text>
<text text-anchor="middle" x="160.5" y="-121" font-family="Arial" font-size="10.00" fill="#ffffff">(2.89%)</text>
<text text-anchor="middle" x="160.5" y="-110" font-family="Arial" font-size="10.00" fill="#ffffff">670353×</text>
</g>
<!-- add_new_element&#45;&gt;free -->
<g id="edge5" class="edge">
<title>add_new_element&#45;&gt;free</title>
<path fill="none" stroke="#0d3d80" stroke-width=".5" d="M186.4827,-205.777C184.6876,-202.8753 182.9964,-199.9257 181.5,-197 177.0897,-188.3773 173.3008,-178.6272 170.2042,-169.4368"/>
<polygon fill="#0d3d80" stroke="#0d3d80" stroke-width=".5" points="171.3562,-169.0183 169.0949,-166.0793 169.0299,-169.787 171.3562,-169.0183"/>
<text text-anchor="middle" x="200.5" y="-189" font-family="Arial" font-size="10.00" fill="#0d3d80">10.50%</text>
<text text-anchor="middle" x="200.5" y="-178" font-family="Arial" font-size="10.00" fill="#0d3d80">670071×</text>
</g>
<!-- malloc -->
<g id="node10" class="node">
<title>malloc</title>
<polygon fill="#0d2179" stroke="#0d2179" points="270,-166 203,-166 203,-103 270,-103 270,-166"/>
<text text-anchor="middle" x="236.5" y="-154" font-family="Arial" font-size="10.00" fill="#ffffff">libc&#45;2.26.so</text>
<text text-anchor="middle" x="236.5" y="-143" font-family="Arial" font-size="10.00" fill="#ffffff">malloc</text>
<text text-anchor="middle" x="236.5" y="-132" font-family="Arial" font-size="10.00" fill="#ffffff">4.67%</text>
<text text-anchor="middle" x="236.5" y="-121" font-family="Arial" font-size="10.00" fill="#ffffff">(4.65%)</text>
<text text-anchor="middle" x="236.5" y="-110" font-family="Arial" font-size="10.00" fill="#ffffff">670290×</text>
</g>
<!-- add_new_element&#45;&gt;malloc -->
<g id="edge6" class="edge">
<title>add_new_element&#45;&gt;malloc</title>
<path fill="none" stroke="#0d2179" stroke-width=".5" d="M218.513,-205.7562C221.3797,-194.3998 224.6276,-181.5328 227.5671,-169.888"/>
<polygon fill="#0d2179" stroke="#0d2179" stroke-width=".5" points="228.7997,-170.0097 228.4687,-166.3163 226.4243,-169.41 228.7997,-170.0097"/>
<text text-anchor="middle" x="245.5" y="-189" font-family="Arial" font-size="10.00" fill="#0d2179">4.67%</text>
<text text-anchor="middle" x="245.5" y="-178" font-family="Arial" font-size="10.00" fill="#0d2179">670248×</text>
</g>
<!-- find_node&#39;2 -->
<g id="node11" class="node">
<title>find_node&#39;2</title>
<polygon fill="#0b9d73" stroke="#0b9d73" points="65,-63 0,-63 0,0 65,0 65,-63"/>
<text text-anchor="middle" x="32.5" y="-51" font-family="Arial" font-size="10.00" fill="#ffffff">viz&#45;release</text>
<text text-anchor="middle" x="32.5" y="-40" font-family="Arial" font-size="10.00" fill="#ffffff">find_node&#39;2</text>
<text text-anchor="middle" x="32.5" y="-29" font-family="Arial" font-size="10.00" fill="#ffffff">32.28%</text>
<text text-anchor="middle" x="32.5" y="-18" font-family="Arial" font-size="10.00" fill="#ffffff">(32.28%)</text>
<text text-anchor="middle" x="32.5" y="-7" font-family="Arial" font-size="10.00" fill="#ffffff">2957935×</text>
</g>
<!-- find_node&#45;&gt;find_node&#39;2 -->
<g id="edge7" class="edge">
<title>find_node&#45;&gt;find_node&#39;2</title>
<path fill="none" stroke="#0b9d73" stroke-width="1.29" d="M58.7887,-102.7562C54.8157,-91.9872 50.3415,-79.8599 46.2259,-68.7044"/>
<polygon fill="#0b9d73" stroke="#0b9d73" stroke-width="1.29" points="48.0827,-67.9735 44.2381,-63.3163 44.3394,-69.3546 48.0827,-67.9735"/>
<text text-anchor="middle" x="77" y="-86" font-family="Arial" font-size="10.00" fill="#0b9d73">32.28%</text>
<text text-anchor="middle" x="77" y="-75" font-family="Arial" font-size="10.00" fill="#0b9d73">1236318×</text>
</g>
<!-- free&#45;&gt;_int_free -->
<g id="edge9" class="edge">
<title>free&#45;&gt;_int_free</title>
<path fill="none" stroke="#0d2f7d" stroke-width=".5" d="M162.9655,-102.7562C163.8476,-91.3998 164.847,-78.5328 165.7514,-66.888"/>
<polygon fill="#0d2f7d" stroke="#0d2f7d" stroke-width=".5" points="166.979,-66.9007 166.0288,-63.3163 164.5364,-66.7109 166.979,-66.9007"/>
<text text-anchor="middle" x="184.5" y="-86" font-family="Arial" font-size="10.00" fill="#0d2f7d">7.62%</text>
<text text-anchor="middle" x="184.5" y="-75" font-family="Arial" font-size="10.00" fill="#0d2f7d">670352×</text>
</g>
<!-- find_node&#39;2&#45;&gt;find_node&#39;2 -->
<g id="edge8" class="edge">
<title>find_node&#39;2&#45;&gt;find_node&#39;2</title>
<path fill="none" stroke="#0b9d73" stroke-width="1.29" d="M65.2067,-40.1334C70.4268,-38.87 74,-35.9922 74,-31.5 74,-28.8328 72.7403,-26.7347 70.6241,-25.2057"/>
<polygon fill="#0b9d73" stroke="#0b9d73" stroke-width="1.29" points="71.2306,-23.2945 65.2067,-22.8666 69.6489,-26.9577 71.2306,-23.2945"/>
<text text-anchor="middle" x="95.5" y="-29" font-family="Arial" font-size="10.00" fill="#0b9d73">1721617×</text>
</g>
<!-- fwrite&#45;&gt;_IO_file_xsputn@@GLIBC_2.2.5 -->
<g id="edge10" class="edge">
<title>fwrite&#45;&gt;_IO_file_xsputn@@GLIBC_2.2.5</title>
<path fill="none" stroke="#0d1274" stroke-width=".5" d="M342.8966,-205.7562C345.5428,-194.3998 348.5409,-181.5328 351.2543,-169.888"/>
<polygon fill="#0d1274" stroke="#0d1274" stroke-width=".5" points="352.4852,-170.003 352.0865,-166.3163 350.0991,-169.447 352.4852,-170.003"/>
<text text-anchor="middle" x="367" y="-189" font-family="Arial" font-size="10.00" fill="#0d1274">1.22%</text>
<text text-anchor="middle" x="367" y="-178" font-family="Arial" font-size="10.00" fill="#0d1274">96724×</text>
</g>
</g>
</svg>
