<?xml version="1.0" encoding="UTF-8" standalone="no"?>
<!DOCTYPE svg PUBLIC "-//W3C//DTD SVG 1.1//EN"
 "http://www.w3.org/Graphics/SVG/1.1/DTD/svg11.dtd">
<!-- Generated by graphviz version 2.40.1 (20161225.0304)
 -->
<!-- Title: %3 Pages: 1 -->
<svg width="516pt" height="792pt"
 viewBox="0.00 0.00 516.00 792.00" xmlns="http://www.w3.org/2000/svg" xmlns:xlink="http://www.w3.org/1999/xlink">
<g id="graph0" class="graph" transform="scale(1 1) rotate(0) translate(4 788)">
<title>%3</title>
<polygon fill="#ffffff" stroke="transparent" points="-4,4 -4,-788 512,-788 512,4 -4,4"/>
<!-- (below main) -->
<g id="node1" class="node">
<title>(below main)</title>
<polygon fill="#ff0000" stroke="#ff0000" points="292.5,-578 221.5,-578 221.5,-515 292.5,-515 292.5,-578"/>
<text text-anchor="middle" x="257" y="-566" font-family="Arial" font-size="10.00" fill="#ffffff">libc&#45;2.26.so</text>
<text text-anchor="middle" x="257" y="-555" font-family="Arial" font-size="10.00" fill="#ffffff">(below main)</text>
<text text-anchor="middle" x="257" y="-544" font-family="Arial" font-size="10.00" fill="#ffffff">99.97%</text>
<text text-anchor="middle" x="257" y="-533" font-family="Arial" font-size="10.00" fill="#ffffff">(0.00%)</text>
<text text-anchor="middle" x="257" y="-522" font-family="Arial" font-size="10.00" fill="#ffffff">1×</text>
</g>
<!-- main -->
<g id="node2" class="node">
<title>main</title>
<polygon fill="#ff0000" stroke="#ff0000" points="289,-475 225,-475 225,-412 289,-412 289,-475"/>
<text text-anchor="middle" x="257" y="-463" font-family="Arial" font-size="10.00" fill="#ffffff">viz&#45;release</text>
<text text-anchor="middle" x="257" y="-452" font-family="Arial" font-size="10.00" fill="#ffffff">main</text>
<text text-anchor="middle" x="257" y="-441" font-family="Arial" font-size="10.00" fill="#ffffff">99.97%</text>
<text text-anchor="middle" x="257" y="-430" font-family="Arial" font-size="10.00" fill="#ffffff">(0.86%)</text>
<text text-anchor="middle" x="257" y="-419" font-family="Arial" font-size="10.00" fill="#ffffff">1×</text>
</g>
<!-- (below main)&#45;&gt;main -->
<g id="edge1" class="edge">
<title>(below main)&#45;&gt;main</title>
<path fill="none" stroke="#ff0000" stroke-width="4" d="M257,-514.7562C257,-505.5536 257,-495.3591 257,-485.6267"/>
<polygon fill="#ff0000" stroke="#ff0000" stroke-width="4" points="260.5001,-485.3163 257,-475.3163 253.5001,-485.3164 260.5001,-485.3163"/>
<text text-anchor="middle" x="274" y="-498" font-family="Arial" font-size="10.00" fill="#ff0000">99.97%</text>
<text text-anchor="middle" x="274" y="-487" font-family="Arial" font-size="10.00" fill="#ff0000">1×</text>
</g>
<!-- free -->
<g id="node10" class="node">
<title>free</title>
<polygon fill="#0c658a" stroke="#0c658a" points="337.5,-166 270.5,-166 270.5,-103 337.5,-103 337.5,-166"/>
<text text-anchor="middle" x="304" y="-154" font-family="Arial" font-size="10.00" fill="#ffffff">libc&#45;2.26.so</text>
<text text-anchor="middle" x="304" y="-143" font-family="Arial" font-size="10.00" fill="#ffffff">free</text>
<text text-anchor="middle" x="304" y="-132" font-family="Arial" font-size="10.00" fill="#ffffff">17.67%</text>
<text text-anchor="middle" x="304" y="-121" font-family="Arial" font-size="10.00" fill="#ffffff">(4.51%)</text>
<text text-anchor="middle" x="304" y="-110" font-family="Arial" font-size="10.00" fill="#ffffff">1340091×</text>
</g>
<!-- main&#45;&gt;free -->
<g id="edge17" class="edge">
<title>main&#45;&gt;free</title>
<path fill="none" stroke="#0d1b77" stroke-width=".5" d="M258.9539,-411.9437C261.278,-378.541 265.7783,-324.349 273,-278 278.8068,-240.7316 288.2591,-198.5985 295.2018,-169.6786"/>
<polygon fill="#0d1b77" stroke="#0d1b77" stroke-width=".5" points="296.4065,-169.9081 296.0357,-166.2185 294.0247,-169.334 296.4065,-169.9081"/>
<text text-anchor="middle" x="292" y="-292" font-family="Arial" font-size="10.00" fill="#0d1b77">3.31%</text>
<text text-anchor="middle" x="292" y="-281" font-family="Arial" font-size="10.00" fill="#0d1b77">167520×</text>
</g>
<!-- calloc -->
<g id="node12" class="node">
<title>calloc</title>
<polygon fill="#0d267a" stroke="#0d267a" points="238.5,-372 171.5,-372 171.5,-309 238.5,-309 238.5,-372"/>
<text text-anchor="middle" x="205" y="-360" font-family="Arial" font-size="10.00" fill="#ffffff">libc&#45;2.26.so</text>
<text text-anchor="middle" x="205" y="-349" font-family="Arial" font-size="10.00" fill="#ffffff">calloc</text>
<text text-anchor="middle" x="205" y="-338" font-family="Arial" font-size="10.00" fill="#ffffff">5.84%</text>
<text text-anchor="middle" x="205" y="-327" font-family="Arial" font-size="10.00" fill="#ffffff">(1.74%)</text>
<text text-anchor="middle" x="205" y="-316" font-family="Arial" font-size="10.00" fill="#ffffff">167554×</text>
</g>
<!-- main&#45;&gt;calloc -->
<g id="edge15" class="edge">
<title>main&#45;&gt;calloc</title>
<path fill="none" stroke="#0d267a" stroke-width=".5" d="M224.6711,-419.8835C219.6981,-414.8502 215.1711,-409.1698 212,-403 207.8075,-394.8428 205.6126,-385.3096 204.5559,-376.1817"/>
<polygon fill="#0d267a" stroke="#0d267a" stroke-width=".5" points="205.7353,-375.6615 204.1701,-372.2998 203.2973,-375.9038 205.7353,-375.6615"/>
<text text-anchor="middle" x="231" y="-395" font-family="Arial" font-size="10.00" fill="#0d267a">5.72%</text>
<text text-anchor="middle" x="231" y="-384" font-family="Arial" font-size="10.00" fill="#0d267a">167518×</text>
</g>
<!-- decode_byte -->
<g id="node13" class="node">
<title>decode_byte</title>
<polygon fill="#f06202" stroke="#f06202" points="370,-372 298,-372 298,-309 370,-309 370,-372"/>
<text text-anchor="middle" x="334" y="-360" font-family="Arial" font-size="10.00" fill="#ffffff">viz&#45;release</text>
<text text-anchor="middle" x="334" y="-349" font-family="Arial" font-size="10.00" fill="#ffffff">decode_byte</text>
<text text-anchor="middle" x="334" y="-338" font-family="Arial" font-size="10.00" fill="#ffffff">89.95%</text>
<text text-anchor="middle" x="334" y="-327" font-family="Arial" font-size="10.00" fill="#ffffff">(7.14%)</text>
<text text-anchor="middle" x="334" y="-316" font-family="Arial" font-size="10.00" fill="#ffffff">167542×</text>
</g>
<!-- main&#45;&gt;decode_byte -->
<g id="edge16" class="edge">
<title>main&#45;&gt;decode_byte</title>
<path fill="none" stroke="#f06202" stroke-width="3.6" d="M280.7308,-411.7562C288.1959,-401.7704 296.5341,-390.6167 304.3566,-380.1528"/>
<polygon fill="#f06202" stroke="#f06202" stroke-width="3.6" points="307.1899,-381.9161 310.215,-372.3163 301.8637,-377.9343 307.1899,-381.9161"/>
<text text-anchor="middle" x="322" y="-395" font-family="Arial" font-size="10.00" fill="#f06202">89.95%</text>
<text text-anchor="middle" x="322" y="-384" font-family="Arial" font-size="10.00" fill="#f06202">167542×</text>
</g>
<!-- 0x0000000000000f30 -->
<g id="node3" class="node">
<title>0x0000000000000f30</title>
<polygon fill="#ff0000" stroke="#ff0000" points="311.5,-784 202.5,-784 202.5,-721 311.5,-721 311.5,-784"/>
<text text-anchor="middle" x="257" y="-772" font-family="Arial" font-size="10.00" fill="#ffffff">ld&#45;2.26.so</text>
<text text-anchor="middle" x="257" y="-761" font-family="Arial" font-size="10.00" fill="#ffffff">0x0000000000000f30</text>
<text text-anchor="middle" x="257" y="-750" font-family="Arial" font-size="10.00" fill="#ffffff">100.00%</text>
<text text-anchor="middle" x="257" y="-739" font-family="Arial" font-size="10.00" fill="#ffffff">(0.00%)</text>
<text text-anchor="middle" x="257" y="-728" font-family="Arial" font-size="10.00" fill="#ffffff">0×</text>
</g>
<!-- _start -->
<g id="node4" class="node">
<title>_start</title>
<polygon fill="#ff0000" stroke="#ff0000" points="289,-681 225,-681 225,-618 289,-618 289,-681"/>
<text text-anchor="middle" x="257" y="-669" font-family="Arial" font-size="10.00" fill="#ffffff">viz&#45;release</text>
<text text-anchor="middle" x="257" y="-658" font-family="Arial" font-size="10.00" fill="#ffffff">_start</text>
<text text-anchor="middle" x="257" y="-647" font-family="Arial" font-size="10.00" fill="#ffffff">99.97%</text>
<text text-anchor="middle" x="257" y="-636" font-family="Arial" font-size="10.00" fill="#ffffff">(0.00%)</text>
<text text-anchor="middle" x="257" y="-625" font-family="Arial" font-size="10.00" fill="#ffffff">1×</text>
</g>
<!-- 0x0000000000000f30&#45;&gt;_start -->
<g id="edge2" class="edge">
<title>0x0000000000000f30&#45;&gt;_start</title>
<path fill="none" stroke="#ff0000" stroke-width="4" d="M257,-720.7562C257,-711.5536 257,-701.3591 257,-691.6267"/>
<polygon fill="#ff0000" stroke="#ff0000" stroke-width="4" points="260.5001,-691.3163 257,-681.3163 253.5001,-691.3164 260.5001,-691.3163"/>
<text text-anchor="middle" x="274" y="-704" font-family="Arial" font-size="10.00" fill="#ff0000">99.97%</text>
<text text-anchor="middle" x="274" y="-693" font-family="Arial" font-size="10.00" fill="#ff0000">1×</text>
</g>
<!-- _start&#45;&gt;(below main) -->
<g id="edge3" class="edge">
<title>_start&#45;&gt;(below main)</title>
<path fill="none" stroke="#ff0000" stroke-width="4" d="M257,-617.7562C257,-608.5536 257,-598.3591 257,-588.6267"/>
<polygon fill="#ff0000" stroke="#ff0000" stroke-width="4" points="260.5001,-588.3163 257,-578.3163 253.5001,-588.3164 260.5001,-588.3163"/>
<text text-anchor="middle" x="274" y="-601" font-family="Arial" font-size="10.00" fill="#ff0000">99.97%</text>
<text text-anchor="middle" x="274" y="-590" font-family="Arial" font-size="10.00" fill="#ff0000">1×</text>
</g>
<!-- __memset_avx2_unaligned_erms -->
<g id="node5" class="node">
<title>__memset_avx2_unaligned_erms</title>
<polygon fill="#0d1174" stroke="#0d1174" points="162,-269 0,-269 0,-206 162,-206 162,-269"/>
<text text-anchor="middle" x="81" y="-257" font-family="Arial" font-size="10.00" fill="#ffffff">libc&#45;2.26.so</text>
<text text-anchor="middle" x="81" y="-246" font-family="Arial" font-size="10.00" fill="#ffffff">__memset_avx2_unaligned_erms</text>
<text text-anchor="middle" x="81" y="-235" font-family="Arial" font-size="10.00" fill="#ffffff">0.99%</text>
<text text-anchor="middle" x="81" y="-224" font-family="Arial" font-size="10.00" fill="#ffffff">(0.87%)</text>
<text text-anchor="middle" x="81" y="-213" font-family="Arial" font-size="10.00" fill="#ffffff">167544×</text>
</g>
<!-- _int_free -->
<g id="node6" class="node">
<title>_int_free</title>
<polygon fill="#0d4b84" stroke="#0d4b84" points="337.5,-63 270.5,-63 270.5,0 337.5,0 337.5,-63"/>
<text text-anchor="middle" x="304" y="-51" font-family="Arial" font-size="10.00" fill="#ffffff">libc&#45;2.26.so</text>
<text text-anchor="middle" x="304" y="-40" font-family="Arial" font-size="10.00" fill="#ffffff">_int_free</text>
<text text-anchor="middle" x="304" y="-29" font-family="Arial" font-size="10.00" fill="#ffffff">13.16%</text>
<text text-anchor="middle" x="304" y="-18" font-family="Arial" font-size="10.00" fill="#ffffff">(13.16%)</text>
<text text-anchor="middle" x="304" y="-7" font-family="Arial" font-size="10.00" fill="#ffffff">1340090×</text>
</g>
<!-- _int_malloc -->
<g id="node7" class="node">
<title>_int_malloc</title>
<polygon fill="#0d1a77" stroke="#0d1a77" points="238.5,-269 171.5,-269 171.5,-206 238.5,-206 238.5,-269"/>
<text text-anchor="middle" x="205" y="-257" font-family="Arial" font-size="10.00" fill="#ffffff">libc&#45;2.26.so</text>
<text text-anchor="middle" x="205" y="-246" font-family="Arial" font-size="10.00" fill="#ffffff">_int_malloc</text>
<text text-anchor="middle" x="205" y="-235" font-family="Arial" font-size="10.00" fill="#ffffff">3.11%</text>
<text text-anchor="middle" x="205" y="-224" font-family="Arial" font-size="10.00" fill="#ffffff">(3.11%)</text>
<text text-anchor="middle" x="205" y="-213" font-family="Arial" font-size="10.00" fill="#ffffff">167735×</text>
</g>
<!-- add_new_element -->
<g id="node8" class="node">
<title>add_new_element</title>
<polygon fill="#cfd806" stroke="#cfd806" points="447.5,-269 352.5,-269 352.5,-206 447.5,-206 447.5,-269"/>
<text text-anchor="middle" x="400" y="-257" font-family="Arial" font-size="10.00" fill="#ffffff">viz&#45;release</text>
<text text-anchor="middle" x="400" y="-246" font-family="Arial" font-size="10.00" fill="#ffffff">add_new_element</text>
<text text-anchor="middle" x="400" y="-235" font-family="Arial" font-size="10.00" fill="#ffffff">73.89%</text>
<text text-anchor="middle" x="400" y="-224" font-family="Arial" font-size="10.00" fill="#ffffff">(26.75%)</text>
<text text-anchor="middle" x="400" y="-213" font-family="Arial" font-size="10.00" fill="#ffffff">167518×</text>
</g>
<!-- find_node -->
<g id="node9" class="node">
<title>find_node</title>
<polygon fill="#0ba164" stroke="#0ba164" points="411,-166 347,-166 347,-103 411,-103 411,-166"/>
<text text-anchor="middle" x="379" y="-154" font-family="Arial" font-size="10.00" fill="#ffffff">viz&#45;release</text>
<text text-anchor="middle" x="379" y="-143" font-family="Arial" font-size="10.00" fill="#ffffff">find_node</text>
<text text-anchor="middle" x="379" y="-132" font-family="Arial" font-size="10.00" fill="#ffffff">35.22%</text>
<text text-anchor="middle" x="379" y="-121" font-family="Arial" font-size="10.00" fill="#ffffff">(9.99%)</text>
<text text-anchor="middle" x="379" y="-110" font-family="Arial" font-size="10.00" fill="#ffffff">795701×</text>
</g>
<!-- add_new_element&#45;&gt;find_node -->
<g id="edge4" class="edge">
<title>add_new_element&#45;&gt;find_node</title>
<path fill="none" stroke="#0ba164" stroke-width="1.41" d="M384.5414,-205.601C383.5469,-202.7374 382.6754,-199.8448 382,-197 380.1404,-189.1671 379.106,-180.6315 378.575,-172.4565"/>
<polygon fill="#0ba164" stroke="#0ba164" stroke-width="1.41" points="380.6236,-172.0804 378.2617,-166.2929 376.499,-172.2902 380.6236,-172.0804"/>
<text text-anchor="middle" x="401" y="-189" font-family="Arial" font-size="10.00" fill="#0ba164">35.22%</text>
<text text-anchor="middle" x="401" y="-178" font-family="Arial" font-size="10.00" fill="#0ba164">795701×</text>
</g>
<!-- add_new_element&#45;&gt;free -->
<g id="edge5" class="edge">
<title>add_new_element&#45;&gt;free</title>
<path fill="none" stroke="#0d327d" stroke-width=".5" d="M352.2264,-209.1096C347.4919,-205.3429 342.9755,-201.2881 339,-197 331.4796,-188.8883 324.96,-178.8685 319.6535,-169.2458"/>
<polygon fill="#0d327d" stroke="#0d327d" stroke-width=".5" points="320.642,-168.4982 317.9007,-166.001 318.4864,-169.6626 320.642,-168.4982"/>
<text text-anchor="middle" x="358" y="-189" font-family="Arial" font-size="10.00" fill="#0d327d">8.21%</text>
<text text-anchor="middle" x="358" y="-178" font-family="Arial" font-size="10.00" fill="#0d327d">670071×</text>
</g>
<!-- malloc -->
<g id="node11" class="node">
<title>malloc</title>
<polygon fill="#0d297b" stroke="#0d297b" points="499.5,-166 432.5,-166 432.5,-103 499.5,-103 499.5,-166"/>
<text text-anchor="middle" x="466" y="-154" font-family="Arial" font-size="10.00" fill="#ffffff">libc&#45;2.26.so</text>
<text text-anchor="middle" x="466" y="-143" font-family="Arial" font-size="10.00" fill="#ffffff">malloc</text>
<text text-anchor="middle" x="466" y="-132" font-family="Arial" font-size="10.00" fill="#ffffff">6.41%</text>
<text text-anchor="middle" x="466" y="-121" font-family="Arial" font-size="10.00" fill="#ffffff">(6.40%)</text>
<text text-anchor="middle" x="466" y="-110" font-family="Arial" font-size="10.00" fill="#ffffff">1172574×</text>
</g>
<!-- add_new_element&#45;&gt;malloc -->
<g id="edge6" class="edge">
<title>add_new_element&#45;&gt;malloc</title>
<path fill="none" stroke="#0d1c77" stroke-width=".5" d="M415.9294,-205.7331C421.32,-195.6909 427.6032,-184.6903 434,-175 435.2311,-173.135 436.526,-171.2491 437.8606,-169.3639"/>
<polygon fill="#0d1c77" stroke="#0d1c77" stroke-width=".5" points="438.9391,-169.9624 439.9871,-166.4054 436.9496,-168.5325 438.9391,-169.9624"/>
<text text-anchor="middle" x="453" y="-189" font-family="Arial" font-size="10.00" fill="#0d1c77">3.65%</text>
<text text-anchor="middle" x="453" y="-178" font-family="Arial" font-size="10.00" fill="#0d1c77">670248×</text>
</g>
<!-- find_node&#39;2 -->
<g id="node14" class="node">
<title>find_node&#39;2</title>
<polygon fill="#0c9493" stroke="#0c9493" points="411.5,-63 346.5,-63 346.5,0 411.5,0 411.5,-63"/>
<text text-anchor="middle" x="379" y="-51" font-family="Arial" font-size="10.00" fill="#ffffff">viz&#45;release</text>
<text text-anchor="middle" x="379" y="-40" font-family="Arial" font-size="10.00" fill="#ffffff">find_node&#39;2</text>
<text text-anchor="middle" x="379" y="-29" font-family="Arial" font-size="10.00" fill="#ffffff">25.22%</text>
<text text-anchor="middle" x="379" y="-18" font-family="Arial" font-size="10.00" fill="#ffffff">(25.22%)</text>
<text text-anchor="middle" x="379" y="-7" font-family="Arial" font-size="10.00" fill="#ffffff">2957935×</text>
</g>
<!-- find_node&#45;&gt;find_node&#39;2 -->
<g id="edge12" class="edge">
<title>find_node&#45;&gt;find_node&#39;2</title>
<path fill="none" stroke="#0c9493" stroke-width="1.01" d="M379,-102.7562C379,-91.8893 379,-79.6393 379,-68.4004"/>
<polygon fill="#0c9493" stroke="#0c9493" stroke-width="1.01" points="380.7501,-68.3163 379,-63.3163 377.2501,-68.3164 380.7501,-68.3163"/>
<text text-anchor="middle" x="400.5" y="-86" font-family="Arial" font-size="10.00" fill="#0c9493">25.22%</text>
<text text-anchor="middle" x="400.5" y="-75" font-family="Arial" font-size="10.00" fill="#0c9493">1236318×</text>
</g>
<!-- free&#45;&gt;_int_free -->
<g id="edge14" class="edge">
<title>free&#45;&gt;_int_free</title>
<path fill="none" stroke="#0d4b84" stroke-width=".53" d="M304,-102.7562C304,-91.4977 304,-78.7546 304,-67.1894"/>
<polygon fill="#0d4b84" stroke="#0d4b84" stroke-width=".53" points="305.2601,-66.9163 304,-63.3163 302.7401,-66.9164 305.2601,-66.9163"/>
<text text-anchor="middle" x="325.5" y="-86" font-family="Arial" font-size="10.00" fill="#0d4b84">13.16%</text>
<text text-anchor="middle" x="325.5" y="-75" font-family="Arial" font-size="10.00" fill="#0d4b84">1340090×</text>
</g>
<!-- calloc&#45;&gt;__memset_avx2_unaligned_erms -->
<g id="edge7" class="edge">
<title>calloc&#45;&gt;__memset_avx2_unaligned_erms</title>
<path fill="none" stroke="#0d1174" stroke-width=".5" d="M171.4438,-312.6267C156.1205,-299.8985 137.8377,-284.7119 121.7331,-271.3348"/>
<polygon fill="#0d1174" stroke="#0d1174" stroke-width=".5" points="122.4361,-270.3262 118.961,-269.0321 120.8706,-272.2108 122.4361,-270.3262"/>
<text text-anchor="middle" x="174" y="-292" font-family="Arial" font-size="10.00" fill="#0d1174">0.99%</text>
<text text-anchor="middle" x="174" y="-281" font-family="Arial" font-size="10.00" fill="#0d1174">167544×</text>
</g>
<!-- calloc&#45;&gt;_int_malloc -->
<g id="edge8" class="edge">
<title>calloc&#45;&gt;_int_malloc</title>
<path fill="none" stroke="#0d1a77" stroke-width=".5" d="M205,-308.7562C205,-297.3998 205,-284.5328 205,-272.888"/>
<polygon fill="#0d1a77" stroke="#0d1a77" stroke-width=".5" points="206.2251,-272.8163 205,-269.3163 203.7751,-272.8164 206.2251,-272.8163"/>
<text text-anchor="middle" x="224" y="-292" font-family="Arial" font-size="10.00" fill="#0d1a77">3.10%</text>
<text text-anchor="middle" x="224" y="-281" font-family="Arial" font-size="10.00" fill="#0d1a77">167545×</text>
</g>
<!-- decode_byte&#45;&gt;add_new_element -->
<g id="edge9" class="edge">
<title>decode_byte&#45;&gt;add_new_element</title>
<path fill="none" stroke="#cfd806" stroke-width="2.96" d="M354.3407,-308.7562C360.8021,-298.6725 368.0266,-287.3978 374.7885,-276.8453"/>
<polygon fill="#cfd806" stroke="#cfd806" stroke-width="2.96" points="377.5073,-278.1813 379.6128,-269.3163 372.4386,-274.9334 377.5073,-278.1813"/>
<text text-anchor="middle" x="392" y="-292" font-family="Arial" font-size="10.00" fill="#cfd806">73.89%</text>
<text text-anchor="middle" x="392" y="-281" font-family="Arial" font-size="10.00" fill="#cfd806">167518×</text>
</g>
<!-- decode_byte&#45;&gt;free -->
<g id="edge10" class="edge">
<title>decode_byte&#45;&gt;free</title>
<path fill="none" stroke="#0d287b" stroke-width=".5" d="M321.3027,-308.9717C316.923,-296.6976 312.4944,-282.3872 310,-269 303.7923,-235.6835 302.6916,-196.9619 302.9044,-169.6447"/>
<polygon fill="#0d287b" stroke="#0d287b" stroke-width=".5" points="304.1303,-169.5479 302.9406,-166.0357 301.6804,-169.5232 304.1303,-169.5479"/>
<text text-anchor="middle" x="329" y="-240.5" font-family="Arial" font-size="10.00" fill="#0d287b">6.15%</text>
<text text-anchor="middle" x="329" y="-229.5" font-family="Arial" font-size="10.00" fill="#0d287b">502290×</text>
</g>
<!-- decode_byte&#45;&gt;malloc -->
<g id="edge11" class="edge">
<title>decode_byte&#45;&gt;malloc</title>
<path fill="none" stroke="#0d1876" stroke-width=".5" d="M370.1496,-328.5278C397.3489,-317.5245 433.0666,-298.4036 452,-269 470.9149,-239.6251 472.5696,-198.9505 470.6395,-170.0405"/>
<polygon fill="#0d1876" stroke="#0d1876" stroke-width=".5" points="471.8371,-169.6207 470.3591,-166.2198 469.3937,-169.8001 471.8371,-169.6207"/>
<text text-anchor="middle" x="489" y="-240.5" font-family="Arial" font-size="10.00" fill="#0d1876">2.77%</text>
<text text-anchor="middle" x="489" y="-229.5" font-family="Arial" font-size="10.00" fill="#0d1876">502290×</text>
</g>
<!-- find_node&#39;2&#45;&gt;find_node&#39;2 -->
<g id="edge13" class="edge">
<title>find_node&#39;2&#45;&gt;find_node&#39;2</title>
<path fill="none" stroke="#0c9493" stroke-width="1.01" d="M411.7067,-40.1334C416.9268,-38.87 420.5,-35.9922 420.5,-31.5 420.5,-28.552 418.9612,-26.2993 416.4279,-24.7418"/>
<polygon fill="#0c9493" stroke="#0c9493" stroke-width="1.01" points="416.9996,-23.0859 411.7067,-22.8666 415.7076,-26.3387 416.9996,-23.0859"/>
<text text-anchor="middle" x="442" y="-29" font-family="Arial" font-size="10.00" fill="#0c9493">1721617×</text>
</g>
</g>
</svg>
